<svg width="34" height="38" viewBox="0 0 34 38" fill="none" xmlns="http://www.w3.org/2000/svg">
<path d="M29.9094 0C32.1172 0 33.8952 1.78507 34 3.88807V37.6797L29.7987 34.1107L27.4932 32.0136L24.9722 29.8176L26.0213 33.277H3.9858C1.7839 33.277 0 31.6085 0 29.389V3.89513C0 1.79214 1.78507 0.00706493 3.99287 0.00706493H29.8976L29.9094 0ZM20.3046 8.92301H20.2552L19.9361 9.23623C23.193 10.1806 24.7685 11.6524 24.7685 11.6524C22.6714 10.6033 20.7756 10.0758 18.8869 9.86147C17.5257 9.65306 16.1575 9.76374 15.0047 9.86147H14.6856C13.9497 9.86147 12.3801 10.1806 10.2759 11.0201C9.54591 11.3392 9.12319 11.5476 9.12319 11.5476C9.12319 11.5476 10.6928 9.97098 14.164 9.13143L13.9497 8.92301C13.9497 8.92301 11.3251 8.81822 8.49205 10.9165C8.49205 10.9165 5.65901 15.8537 5.65901 21.9366C5.65901 21.9366 7.22861 24.666 11.5347 24.7697C11.5347 24.7697 12.1658 23.936 12.7981 23.2001C10.3819 22.4641 9.43758 20.9923 9.43758 20.9923C9.43758 20.9923 9.65188 21.0971 9.96509 21.3055H10.0569C10.1064 21.3055 10.1311 21.3302 10.1547 21.3549V21.3667C10.1794 21.3914 10.2041 21.4091 10.2465 21.4091C10.7681 21.6234 11.2827 21.8318 11.7066 22.0402C12.4425 22.3535 13.381 22.6714 14.5337 22.881C15.9938 23.0953 17.667 23.1942 19.5746 22.881C20.513 22.6667 21.4574 22.4641 22.4017 22.0402C23.0093 21.727 23.7629 21.415 24.5907 20.8816C24.5907 20.8816 23.6522 22.3535 21.1312 23.0894C21.647 23.8194 22.3758 24.659 22.3758 24.659C26.6866 24.5612 28.361 21.8318 28.4528 21.9484C28.4528 15.8714 25.601 10.9283 25.601 10.9283C23.0376 9.02074 20.6331 8.94774 20.2104 8.94774L20.2964 8.91713L20.3046 8.92301ZM20.5684 15.8537C21.6729 15.8537 22.5619 16.7922 22.5619 17.9449C22.5619 19.1106 21.667 20.0479 20.5684 20.0479C19.4639 20.0479 18.5749 19.1095 18.5749 17.9567C18.5749 16.791 19.4698 15.8537 20.5684 15.8537ZM13.4363 15.8537C14.5337 15.8537 15.4239 16.7922 15.4239 17.9449C15.4239 19.1106 14.529 20.0479 13.4304 20.0479C12.326 20.0479 11.4311 19.1095 11.4311 17.9567C11.4311 16.791 12.326 15.8537 13.4304 15.8537H13.4363Z" fill="white"/>
</svg>
