<svg width="35" height="35" viewBox="0 0 35 35" fill="none" xmlns="http://www.w3.org/2000/svg">
<path d="M30.7415 10.2083C30.4895 9.77174 30.1287 9.4079 29.6942 9.15231C29.2597 8.89673 28.7664 8.75812 28.2623 8.75H9.59567L8.74984 5.45417C8.66438 5.13601 8.47372 4.85617 8.20891 4.66021C7.9441 4.46425 7.62074 4.36372 7.2915 4.375H4.37484C3.98806 4.375 3.61713 4.52865 3.34364 4.80214C3.07015 5.07563 2.9165 5.44656 2.9165 5.83333C2.9165 6.22011 3.07015 6.59104 3.34364 6.86453C3.61713 7.13802 3.98806 7.29167 4.37484 7.29167H6.18317L10.2082 22.2542C10.2936 22.5723 10.4843 22.8522 10.7491 23.0481C11.0139 23.2441 11.3373 23.3446 11.6665 23.3333H24.7915C25.0608 23.3325 25.3246 23.2571 25.5537 23.1156C25.7828 22.974 25.9682 22.7717 26.0894 22.5312L30.8728 12.9646C31.0801 12.53 31.1766 12.0509 31.1537 11.57C31.1308 11.089 30.9892 10.6212 30.7415 10.2083ZM23.8873 20.4167H12.7748L10.3978 11.6667H28.2623L23.8873 20.4167Z" fill="#231F20"/>
<path d="M10.9375 30.625C12.1456 30.625 13.125 29.6456 13.125 28.4375C13.125 27.2294 12.1456 26.25 10.9375 26.25C9.72938 26.25 8.75 27.2294 8.75 28.4375C8.75 29.6456 9.72938 30.625 10.9375 30.625Z" fill="#231F20"/>
<path d="M25.5205 30.625C26.7286 30.625 27.708 29.6456 27.708 28.4375C27.708 27.2294 26.7286 26.25 25.5205 26.25C24.3124 26.25 23.333 27.2294 23.333 28.4375C23.333 29.6456 24.3124 30.625 25.5205 30.625Z" fill="#231F20"/>
</svg>
