<svg width="31" height="25" viewBox="0 0 31 25" fill="none" xmlns="http://www.w3.org/2000/svg">
<path d="M30.4763 2.95707C29.3532 3.44944 28.1509 3.78818 26.8837 3.94181C28.1766 3.16604 29.1652 1.93894 29.6366 0.477101C28.4238 1.18321 27.0822 1.69466 25.6556 1.98379C24.5182 0.766225 22.8923 0 21.0879 0C17.6289 0 14.8254 2.80249 14.8254 6.2567C14.8254 6.75384 14.8856 7.23095 14.9896 7.68324C9.7863 7.43992 5.17369 4.93991 2.08875 1.16317C1.54676 2.08302 1.23855 3.15173 1.23855 4.3149C1.23855 6.49144 2.34638 8.39984 4.02101 9.52199C2.99715 9.49241 2.03341 9.20901 1.18894 8.7424V8.81778C1.18894 11.8531 3.34543 14.3836 6.20804 14.96C5.68609 15.0983 5.12884 15.1785 4.563 15.1785C4.16128 15.1785 3.77769 15.1394 3.39505 15.0688C4.2004 17.5535 6.50575 19.3627 9.25385 19.4171C7.1174 21.0917 4.40937 22.0898 1.49142 22.0898C0.994279 22.0898 0.498094 22.0659 0 22.0058C2.78341 23.7806 6.06873 24.8188 9.61741 24.8188C21.1318 24.8188 27.4238 15.2816 27.4238 7.02198C27.4238 6.75862 27.4238 6.49048 27.4037 6.2214C28.6318 5.3464 29.6948 4.23761 30.5345 2.98093L30.4763 2.95707Z" fill="white"/>
</svg>
