<svg width="35" height="34" viewBox="0 0 35 34" fill="none" xmlns="http://www.w3.org/2000/svg">
<path d="M34.1495 17.0748C34.1495 7.64202 26.5011 0 17.0748 0C7.64202 0 0 7.64202 0 17.0748C0 25.5951 6.24189 32.6597 14.4068 33.9393V22.0115H10.0709V17.0758H14.4068V13.3119C14.4068 9.03361 16.952 6.67089 20.8536 6.67089C22.7222 6.67089 24.6784 7.00385 24.6784 7.00385V11.2053H22.5216C20.4043 11.2053 19.7427 12.5233 19.7427 13.8732V17.0748H24.4777L23.7168 22.0104H19.7427V33.9382C27.9012 32.6587 34.1495 25.594 34.1495 17.0737V17.0748Z" fill="white"/>
</svg>
